<?xml version="1.0" encoding="UTF-8"?>
<svg xmlns="http://www.w3.org/2000/svg" width="462" height="98" viewBox="0 0 462 98" fill="none">
  <g clip-path="url(#clip0_29_886)">
    <path fill-rule="evenodd" clip-rule="evenodd" d="M329.7 35.2137C329.7 48.334 322.187 56.4276 309.698 56.4276C297.138 56.4276 289.664 48.334 289.664 35.2137C289.664 22.0522 297.138 13.9175 309.698 13.9175C322.187 13.9175 329.7 22.0522 329.7 35.2137ZM318.034 35.2137C318.034 26.7199 314.783 22.8164 309.698 22.8164C304.582 22.8164 301.331 26.7199 301.331 35.2137C301.331 43.7075 304.582 47.5286 309.698 47.5286C314.783 47.5286 318.034 43.7075 318.034 35.2137Z" fill="black"></path>
    <path fill-rule="evenodd" clip-rule="evenodd" d="M411.204 14.4611C416.622 14.4611 420.46 16.6401 422.671 20.2208H422.959V0.579834H434.403V56.011H423.435V50.635H423.147C420.703 55.2138 416.262 56.9712 411.475 56.9712C401.965 56.9712 394.95 48.8776 394.95 35.7573C394.95 22.5975 401.965 14.4611 411.204 14.4611ZM423.541 35.7573C423.541 27.5089 420.179 23.6071 415.094 23.6071C409.94 23.6071 406.615 27.5106 406.615 35.7573C406.615 43.9629 409.94 47.8663 415.094 47.8663C420.179 47.8663 423.541 43.9629 423.541 35.7573Z" fill="black"></path>
    <path fill-rule="evenodd" clip-rule="evenodd" d="M135.582 46.8235C137.196 46.8235 138.478 46.5995 139.26 46.3805V55.4326C137.842 55.9382 134.822 56.3928 131.962 56.3928C123.775 56.3928 120.229 54.0952 120.229 45.6294V22.7059H114.268V14.8413H120.227V3.59863H131.672V14.8397H139.458V22.7043H131.674V43.0123C131.674 46.2026 132.865 46.8219 135.582 46.8219V46.8235Z" fill="black"></path>
    <path fill-rule="evenodd" clip-rule="evenodd" d="M155.194 21.138H155.481C157.587 16.7734 161.358 13.8828 167.074 13.8828C167.919 13.8828 168.79 13.9948 169.378 14.1826V25.4582C168.485 25.3462 166.801 25.1519 165.283 25.1519C159.778 25.1519 155.669 27.5911 155.669 35.5216V55.4343H144.225V14.8397H155.193V21.1364L155.194 21.138Z" fill="black"></path>
    <path fill-rule="evenodd" clip-rule="evenodd" d="M198.053 49.9844C195.638 53.598 191.773 56.3914 185.883 56.3914C178.338 56.3914 172.481 51.7748 172.481 41.4742V14.8416H183.925V38.526C183.925 44.5014 186.262 46.6887 190.43 46.6887C194.334 46.6887 197.865 43.5527 197.865 36.8394V14.8432H209.309V55.4345H198.341V49.9861H198.053V49.9844Z" fill="black"></path>
    <path fill-rule="evenodd" clip-rule="evenodd" d="M272.625 13.8845C279.781 13.8845 285.421 18.4995 285.421 28.8001V55.4327H273.977V31.7483C273.977 25.7728 271.746 23.5855 267.967 23.5855C264.344 23.5855 261.17 26.7231 261.17 33.4348V55.4343H249.725V31.7499C249.725 25.7728 247.532 23.5855 243.755 23.5855C240.131 23.5855 236.918 26.7231 236.918 33.4348V55.4343H225.473V14.843H236.442V20.326H236.729C239.143 16.7124 242.759 13.8828 248.371 13.8828C253.277 13.8828 257.404 16.0388 259.556 20.6736C262.473 17.0896 266.143 13.8828 272.623 13.8828L272.625 13.8845Z" fill="black"></path>
    <path fill-rule="evenodd" clip-rule="evenodd" d="M359.514 49.9844C357.1 53.598 353.234 56.3914 347.345 56.3914C339.801 56.3914 333.944 51.7748 333.944 41.4742V14.8416H345.388V38.526C345.388 44.5014 347.723 46.6887 351.891 46.6887C355.797 46.6887 359.327 43.5527 359.327 36.8394V14.8432H370.772V55.4345H359.804V49.9861H359.514V49.9844Z" fill="black"></path>
    <path fill-rule="evenodd" clip-rule="evenodd" d="M377.519 0H388.962V55.4328H377.519V0Z" fill="black"></path>
  </g>
  <path d="M117.517 74.7284V88.3237H115.054V74.7284H117.517ZM122.855 82.3492V88.3237H120.452V78.1272H122.749V79.8598H122.868C123.103 79.2889 123.477 78.8353 123.99 78.4989C124.508 78.1626 125.147 77.9944 125.909 77.9944C126.612 77.9944 127.225 78.1449 127.747 78.4458C128.274 78.7468 128.681 79.1827 128.969 79.7536C129.261 80.3245 129.405 81.0171 129.4 81.8314V88.3237H126.997V82.2032C126.997 81.5216 126.82 80.9883 126.466 80.6033C126.117 80.2183 125.632 80.0258 125.012 80.0258C124.592 80.0258 124.218 80.1187 123.891 80.3046C123.567 80.486 123.313 80.7494 123.127 81.0945C122.946 81.4397 122.855 81.858 122.855 82.3492ZM136.001 88.503C135.2 88.503 134.483 88.2972 133.85 87.8856C133.217 87.474 132.717 86.8766 132.35 86.0932C131.983 85.3099 131.799 84.3584 131.799 83.2387C131.799 82.1058 131.985 81.1499 132.357 80.371C132.733 79.5876 133.239 78.9968 133.877 78.5985C134.514 78.1958 135.224 77.9944 136.008 77.9944C136.605 77.9944 137.096 78.0962 137.481 78.2998C137.866 78.4989 138.172 78.7401 138.397 79.0234C138.623 79.3022 138.798 79.5655 138.922 79.8133H139.021V74.7284H141.431V88.3237H139.068V86.7172H138.922C138.798 86.9651 138.619 87.2284 138.384 87.5072C138.15 87.7816 137.84 88.0162 137.455 88.2109C137.07 88.4056 136.585 88.503 136.001 88.503ZM136.671 86.5314C137.18 86.5314 137.614 86.3942 137.973 86.1198C138.331 85.841 138.603 85.4537 138.789 84.9581C138.975 84.4624 139.068 83.8849 139.068 83.2255C139.068 82.5661 138.975 81.9929 138.789 81.5061C138.608 81.0193 138.338 80.6409 137.979 80.371C137.625 80.101 137.189 79.966 136.671 79.966C136.136 79.966 135.689 80.1054 135.331 80.3842C134.972 80.6631 134.702 81.0481 134.521 81.5393C134.339 82.0306 134.248 82.5926 134.248 83.2255C134.248 83.8627 134.339 84.4314 134.521 84.9315C134.707 85.4272 134.979 85.8189 135.337 86.1065C135.7 86.3898 136.145 86.5314 136.671 86.5314ZM144.366 88.3237V78.1272H146.769V88.3237H144.366ZM145.574 76.68C145.193 76.68 144.866 76.5539 144.592 76.3016C144.317 76.045 144.18 75.7374 144.18 75.3789C144.18 75.016 144.317 74.7084 144.592 74.4562C144.866 74.1995 145.193 74.0712 145.574 74.0712C145.959 74.0712 146.287 74.1995 146.556 74.4562C146.831 74.7084 146.968 75.016 146.968 75.3789C146.968 75.7374 146.831 76.045 146.556 76.3016C146.287 76.5539 145.959 76.68 145.574 76.68ZM152.548 88.5295C151.902 88.5295 151.32 88.4145 150.802 88.1843C150.289 87.9498 149.882 87.6046 149.581 87.1487C149.284 86.6929 149.136 86.1309 149.136 85.4626C149.136 84.8873 149.242 84.4115 149.455 84.0353C149.667 83.6592 149.957 83.3582 150.324 83.1325C150.692 82.9068 151.105 82.7364 151.566 82.6214C152.03 82.5019 152.51 82.4156 153.006 82.3625C153.604 82.3005 154.088 82.2452 154.46 82.1965C154.832 82.1434 155.102 82.0638 155.27 81.9575C155.442 81.8469 155.529 81.6765 155.529 81.4464V81.4066C155.529 80.9065 155.38 80.5192 155.084 80.2448C154.787 79.9705 154.36 79.8333 153.803 79.8333C153.214 79.8333 152.747 79.9616 152.402 80.2183C152.061 80.475 151.831 80.7781 151.712 81.1277L149.468 80.8091C149.645 80.1895 149.937 79.6717 150.344 79.2557C150.751 78.8353 151.249 78.5211 151.838 78.3131C152.426 78.1006 153.077 77.9944 153.789 77.9944C154.281 77.9944 154.77 78.052 155.257 78.167C155.743 78.2821 156.188 78.4724 156.591 78.7379C156.994 78.999 157.317 79.3553 157.56 79.8067C157.808 80.2581 157.932 80.8224 157.932 81.4995V88.3237H155.622V86.923H155.542C155.396 87.2063 155.19 87.4718 154.925 87.7196C154.663 87.963 154.334 88.16 153.935 88.3105C153.542 88.4565 153.079 88.5295 152.548 88.5295ZM153.172 86.7637C153.654 86.7637 154.073 86.6686 154.427 86.4783C154.781 86.2835 155.053 86.0269 155.243 85.7082C155.438 85.3896 155.535 85.0422 155.535 84.666V83.4644C155.46 83.5264 155.332 83.5839 155.15 83.637C154.973 83.6901 154.774 83.7366 154.553 83.7764C154.332 83.8163 154.113 83.8517 153.896 83.8827C153.679 83.9136 153.491 83.9402 153.331 83.9623C152.973 84.011 152.652 84.0907 152.369 84.2013C152.086 84.3119 151.862 84.4668 151.698 84.666C151.535 84.8607 151.453 85.113 151.453 85.4228C151.453 85.8653 151.614 86.1995 151.937 86.4252C152.26 86.6509 152.672 86.7637 153.172 86.7637ZM166.272 74.0911L161.89 90.3683H159.786L164.167 74.0911H166.272ZM170.031 88.3237H167.402L172.189 74.7284H175.229L180.022 88.3237H177.393L173.762 77.5165H173.656L170.031 88.3237ZM170.117 82.9931H177.287V84.9714H170.117V82.9931ZM189.975 80.8224L187.784 81.0614C187.722 80.8401 187.614 80.6321 187.459 80.4374C187.309 80.2426 187.105 80.0855 186.848 79.966C186.592 79.8465 186.277 79.7868 185.906 79.7868C185.406 79.7868 184.985 79.8952 184.644 80.1121C184.308 80.3289 184.142 80.6099 184.146 80.9551C184.142 81.2517 184.25 81.4929 184.472 81.6787C184.697 81.8646 185.069 82.0173 185.587 82.1368L187.326 82.5085C188.291 82.7165 189.008 83.0462 189.477 83.4976C189.951 83.949 190.19 84.5399 190.194 85.2701C190.19 85.9118 190.001 86.4783 189.63 86.9695C189.262 87.4563 188.751 87.8369 188.096 88.1113C187.441 88.3857 186.689 88.5229 185.839 88.5229C184.591 88.5229 183.587 88.2618 182.825 87.7396C182.064 87.2129 181.611 86.4805 181.465 85.5423L183.808 85.3166C183.914 85.7768 184.14 86.1242 184.485 86.3588C184.83 86.5933 185.279 86.7106 185.833 86.7106C186.403 86.7106 186.862 86.5933 187.207 86.3588C187.556 86.1242 187.731 85.8343 187.731 85.4891C187.731 85.1971 187.618 84.9559 187.393 84.7656C187.171 84.5753 186.826 84.4292 186.357 84.3274L184.618 83.9623C183.64 83.7587 182.916 83.4158 182.447 82.9334C181.978 82.4466 181.746 81.8314 181.75 81.0879C181.746 80.4595 181.916 79.9151 182.261 79.4549C182.611 78.9902 183.095 78.6317 183.715 78.3795C184.339 78.1228 185.058 77.9944 185.872 77.9944C187.067 77.9944 188.008 78.2489 188.694 78.7578C189.384 79.2668 189.811 79.955 189.975 80.8224ZM192.549 88.3237V78.1272H194.952V88.3237H192.549ZM193.758 76.68C193.377 76.68 193.05 76.5539 192.775 76.3016C192.501 76.045 192.364 75.7374 192.364 75.3789C192.364 75.016 192.501 74.7084 192.775 74.4562C193.05 74.1995 193.377 74.0712 193.758 74.0712C194.143 74.0712 194.47 74.1995 194.74 74.4562C195.014 74.7084 195.152 75.016 195.152 75.3789C195.152 75.7374 195.014 76.045 194.74 76.3016C194.47 76.5539 194.143 76.68 193.758 76.68ZM200.732 88.5295C200.086 88.5295 199.504 88.4145 198.986 88.1843C198.472 87.9498 198.065 87.6046 197.764 87.1487C197.468 86.6929 197.32 86.1309 197.32 85.4626C197.32 84.8873 197.426 84.4115 197.638 84.0353C197.851 83.6592 198.14 83.3582 198.508 83.1325C198.875 82.9068 199.289 82.7364 199.749 82.6214C200.214 82.5019 200.694 82.4156 201.19 82.3625C201.787 82.3005 202.272 82.2452 202.644 82.1965C203.015 82.1434 203.285 82.0638 203.453 81.9575C203.626 81.8469 203.712 81.6765 203.712 81.4464V81.4066C203.712 80.9065 203.564 80.5192 203.268 80.2448C202.971 79.9705 202.544 79.8333 201.986 79.8333C201.398 79.8333 200.931 79.9616 200.586 80.2183C200.245 80.475 200.015 80.7781 199.895 81.1277L197.651 80.8091C197.828 80.1895 198.121 79.6717 198.528 79.2557C198.935 78.8353 199.433 78.5211 200.021 78.3131C200.61 78.1006 201.261 77.9944 201.973 77.9944C202.464 77.9944 202.953 78.052 203.44 78.167C203.927 78.2821 204.372 78.4724 204.774 78.7379C205.177 78.999 205.5 79.3553 205.744 79.8067C205.991 80.2581 206.115 80.8224 206.115 81.4995V88.3237H203.805V86.923H203.726C203.58 87.2063 203.374 87.4718 203.108 87.7196C202.847 87.963 202.517 88.16 202.119 88.3105C201.725 88.4565 201.263 88.5295 200.732 88.5295ZM201.356 86.7637C201.838 86.7637 202.256 86.6686 202.61 86.4783C202.964 86.2835 203.237 86.0269 203.427 85.7082C203.622 85.3896 203.719 85.0422 203.719 84.666V83.4644C203.644 83.5264 203.515 83.5839 203.334 83.637C203.157 83.6901 202.958 83.7366 202.736 83.7764C202.515 83.8163 202.296 83.8517 202.079 83.8827C201.862 83.9136 201.674 83.9402 201.515 83.9623C201.157 84.011 200.836 84.0907 200.552 84.2013C200.269 84.3119 200.046 84.4668 199.882 84.666C199.718 84.8607 199.636 85.113 199.636 85.4228C199.636 85.8653 199.798 86.1995 200.121 86.4252C200.444 86.6509 200.856 86.7637 201.356 86.7637ZM214.023 74.7284H217.036L221.073 84.5797H221.232L225.268 74.7284H228.282V88.3237H225.919V78.9835H225.792L222.035 88.2839H220.269L216.512 78.9636H216.386V88.3237H214.023V74.7284ZM234.166 88.5295C233.519 88.5295 232.937 88.4145 232.42 88.1843C231.906 87.9498 231.499 87.6046 231.198 87.1487C230.902 86.6929 230.753 86.1309 230.753 85.4626C230.753 84.8873 230.86 84.4115 231.072 84.0353C231.284 83.6592 231.574 83.3582 231.942 83.1325C232.309 82.9068 232.723 82.7364 233.183 82.6214C233.648 82.5019 234.128 82.4156 234.624 82.3625C235.221 82.3005 235.706 82.2452 236.077 82.1965C236.449 82.1434 236.719 82.0638 236.887 81.9575C237.06 81.8469 237.146 81.6765 237.146 81.4464V81.4066C237.146 80.9065 236.998 80.5192 236.701 80.2448C236.405 79.9705 235.978 79.8333 235.42 79.8333C234.832 79.8333 234.365 79.9616 234.019 80.2183C233.679 80.475 233.449 80.7781 233.329 81.1277L231.085 80.8091C231.262 80.1895 231.554 79.6717 231.962 79.2557C232.369 78.8353 232.867 78.5211 233.455 78.3131C234.044 78.1006 234.694 77.9944 235.407 77.9944C235.898 77.9944 236.387 78.052 236.874 78.167C237.361 78.2821 237.806 78.4724 238.208 78.7379C238.611 78.999 238.934 79.3553 239.178 79.8067C239.425 80.2581 239.549 80.8224 239.549 81.4995V88.3237H237.239V86.923H237.159C237.013 87.2063 236.808 87.4718 236.542 87.7196C236.281 87.963 235.951 88.16 235.553 88.3105C235.159 88.4565 234.697 88.5295 234.166 88.5295ZM234.79 86.7637C235.272 86.7637 235.69 86.6686 236.044 86.4783C236.398 86.2835 236.67 86.0269 236.861 85.7082C237.055 85.3896 237.153 85.0422 237.153 84.666V83.4644C237.078 83.5264 236.949 83.5839 236.768 83.637C236.591 83.6901 236.392 83.7366 236.17 83.7764C235.949 83.8163 235.73 83.8517 235.513 83.8827C235.296 83.9136 235.108 83.9402 234.949 83.9623C234.59 84.011 234.27 84.0907 233.986 84.2013C233.703 84.3119 233.48 84.4668 233.316 84.666C233.152 84.8607 233.07 85.113 233.07 85.4228C233.07 85.8653 233.232 86.1995 233.555 86.4252C233.878 86.6509 234.289 86.7637 234.79 86.7637ZM244.743 82.3492V88.3237H242.339V78.1272H244.636V79.8598H244.756C244.99 79.2889 245.364 78.8353 245.878 78.4989C246.396 78.1626 247.035 77.9944 247.796 77.9944C248.5 77.9944 249.113 78.1449 249.635 78.4458C250.162 78.7468 250.569 79.1827 250.857 79.7536C251.149 80.3245 251.292 81.0171 251.288 81.8314V88.3237H248.885V82.2032C248.885 81.5216 248.708 80.9883 248.354 80.6033C248.004 80.2183 247.52 80.0258 246.9 80.0258C246.48 80.0258 246.106 80.1187 245.778 80.3046C245.455 80.486 245.201 80.7494 245.015 81.0945C244.833 81.4397 244.743 81.858 244.743 82.3492ZM260.604 84.0353V78.1272H263.007V88.3237H260.677V86.5115H260.571C260.34 87.0824 259.962 87.5493 259.435 87.9122C258.913 88.275 258.269 88.4565 257.504 88.4565C256.835 88.4565 256.245 88.3082 255.731 88.0117C255.222 87.7108 254.824 87.2749 254.536 86.704C254.249 86.1286 254.105 85.4338 254.105 84.6195V78.1272H256.508V84.2478C256.508 84.8939 256.685 85.4073 257.039 85.7879C257.393 86.1685 257.858 86.3588 258.433 86.3588C258.787 86.3588 259.13 86.2725 259.462 86.0999C259.794 85.9273 260.066 85.6706 260.278 85.3298C260.495 84.9846 260.604 84.5531 260.604 84.0353ZM271.016 78.1272V79.9859H264.989V78.1272H271.016ZM266.496 88.3237V77.1646C266.496 76.4787 266.637 75.9078 266.921 75.4519C267.208 74.9961 267.593 74.6553 268.076 74.4296C268.558 74.2039 269.094 74.0911 269.682 74.0911C270.098 74.0911 270.468 74.1243 270.791 74.1906C271.114 74.257 271.353 74.3168 271.508 74.3699L271.03 76.2286C270.928 76.1976 270.8 76.1667 270.645 76.1357C270.49 76.1003 270.317 76.0826 270.127 76.0826C269.68 76.0826 269.364 76.191 269.178 76.4079C268.996 76.6203 268.905 76.9257 268.905 77.324V88.3237H266.496ZM275.86 88.5295C275.214 88.5295 274.632 88.4145 274.114 88.1843C273.6 87.9498 273.193 87.6046 272.892 87.1487C272.596 86.6929 272.448 86.1309 272.448 85.4626C272.448 84.8873 272.554 84.4115 272.766 84.0353C272.979 83.6592 273.268 83.3582 273.636 83.1325C274.003 82.9068 274.417 82.7364 274.877 82.6214C275.342 82.5019 275.822 82.4156 276.318 82.3625C276.915 82.3005 277.4 82.2452 277.772 82.1965C278.143 82.1434 278.413 82.0638 278.581 81.9575C278.754 81.8469 278.84 81.6765 278.84 81.4464V81.4066C278.84 80.9065 278.692 80.5192 278.396 80.2448C278.099 79.9705 277.672 79.8333 277.114 79.8333C276.526 79.8333 276.059 79.9616 275.714 80.2183C275.373 80.475 275.143 80.7781 275.023 81.1277L272.779 80.8091C272.956 80.1895 273.249 79.6717 273.656 79.2557C274.063 78.8353 274.561 78.5211 275.149 78.3131C275.738 78.1006 276.389 77.9944 277.101 77.9944C277.592 77.9944 278.081 78.052 278.568 78.167C279.055 78.2821 279.5 78.4724 279.902 78.7379C280.305 78.999 280.628 79.3553 280.872 79.8067C281.119 80.2581 281.243 80.8224 281.243 81.4995V88.3237H278.933V86.923H278.854C278.708 87.2063 278.502 87.4718 278.236 87.7196C277.975 87.963 277.645 88.16 277.247 88.3105C276.853 88.4565 276.391 88.5295 275.86 88.5295ZM276.484 86.7637C276.966 86.7637 277.384 86.6686 277.738 86.4783C278.092 86.2835 278.365 86.0269 278.555 85.7082C278.75 85.3896 278.847 85.0422 278.847 84.666V83.4644C278.772 83.5264 278.643 83.5839 278.462 83.637C278.285 83.6901 278.086 83.7366 277.864 83.7764C277.643 83.8163 277.424 83.8517 277.207 83.8827C276.99 83.9136 276.802 83.9402 276.643 83.9623C276.285 84.011 275.964 84.0907 275.68 84.2013C275.397 84.3119 275.174 84.4668 275.01 84.666C274.846 84.8607 274.764 85.113 274.764 85.4228C274.764 85.8653 274.926 86.1995 275.249 86.4252C275.572 86.6509 275.984 86.7637 276.484 86.7637ZM288.481 88.5229C287.463 88.5229 286.589 88.2994 285.859 87.8524C285.133 87.4054 284.574 86.7881 284.18 86.0003C283.79 85.2081 283.595 84.2965 283.595 83.2653C283.595 82.2297 283.795 81.3158 284.193 80.5236C284.591 79.727 285.153 79.1075 285.879 78.6649C286.609 78.2179 287.472 77.9944 288.468 77.9944C289.296 77.9944 290.028 78.1471 290.665 78.4525C291.307 78.7534 291.818 79.1805 292.199 79.7337C292.579 80.2825 292.796 80.9242 292.849 81.6588H290.552C290.46 81.1676 290.238 80.7582 289.889 80.4307C289.543 80.0988 289.081 79.9328 288.501 79.9328C288.01 79.9328 287.578 80.0656 287.207 80.3311C286.835 80.5922 286.545 80.9684 286.337 81.4597C286.134 81.9509 286.032 82.5395 286.032 83.2255C286.032 83.9203 286.134 84.5177 286.337 85.0178C286.541 85.5135 286.826 85.8963 287.193 86.1663C287.565 86.4318 288.001 86.5646 288.501 86.5646C288.855 86.5646 289.172 86.4982 289.451 86.3654C289.734 86.2282 289.971 86.0313 290.161 85.7746C290.351 85.5179 290.482 85.2059 290.552 84.8386H292.849C292.792 85.56 292.579 86.1995 292.212 86.7571C291.845 87.3103 291.345 87.744 290.712 88.0582C290.079 88.368 289.335 88.5229 288.481 88.5229ZM300.288 78.1272V79.9859H294.426V78.1272H300.288ZM295.874 75.6843H298.277V85.2568C298.277 85.5799 298.325 85.8277 298.423 86.0003C298.525 86.1685 298.657 86.2835 298.821 86.3455C298.985 86.4075 299.166 86.4384 299.365 86.4384C299.516 86.4384 299.653 86.4274 299.777 86.4052C299.905 86.3831 300.003 86.3632 300.069 86.3455L300.474 88.2242C300.346 88.2684 300.162 88.3171 299.923 88.3702C299.688 88.4233 299.401 88.4543 299.06 88.4631C298.458 88.4808 297.916 88.3901 297.434 88.191C296.951 87.9874 296.568 87.6732 296.285 87.2483C296.006 86.8235 295.869 86.2924 295.874 85.6551V75.6843ZM309.171 84.0353V78.1272H311.574V88.3237H309.244V86.5115H309.138C308.907 87.0824 308.529 87.5493 308.002 87.9122C307.48 88.275 306.836 88.4565 306.071 88.4565C305.402 88.4565 304.812 88.3082 304.298 88.0117C303.789 87.7108 303.391 87.2749 303.103 86.704C302.816 86.1286 302.672 85.4338 302.672 84.6195V78.1272H305.075V84.2478C305.075 84.8939 305.252 85.4073 305.606 85.7879C305.96 86.1685 306.425 86.3588 307 86.3588C307.354 86.3588 307.697 86.2725 308.029 86.0999C308.361 85.9273 308.633 85.6706 308.845 85.3298C309.062 84.9846 309.171 84.5531 309.171 84.0353ZM314.419 88.3237V78.1272H316.749V79.8266H316.855C317.041 79.238 317.36 78.7844 317.811 78.4658C318.267 78.1427 318.787 77.9812 319.371 77.9812C319.504 77.9812 319.652 77.9878 319.816 78.0011C319.984 78.0099 320.123 78.0254 320.234 78.0475V80.2581C320.132 80.2227 319.971 80.1917 319.749 80.1652C319.533 80.1342 319.322 80.1187 319.119 80.1187C318.681 80.1187 318.287 80.2139 317.937 80.4042C317.592 80.59 317.32 80.8489 317.121 81.1808C316.921 81.5128 316.822 81.8956 316.822 82.3293V88.3237H314.419ZM322.204 88.3237V78.1272H324.608V88.3237H322.204ZM323.413 76.68C323.032 76.68 322.705 76.5539 322.43 76.3016C322.156 76.045 322.019 75.7374 322.019 75.3789C322.019 75.016 322.156 74.7084 322.43 74.4562C322.705 74.1995 323.032 74.0712 323.413 74.0712C323.798 74.0712 324.125 74.1995 324.395 74.4562C324.669 74.7084 324.807 75.016 324.807 75.3789C324.807 75.7374 324.669 76.045 324.395 76.3016C324.125 76.5539 323.798 76.68 323.413 76.68ZM329.856 82.3492V88.3237H327.453V78.1272H329.749V79.8598H329.869C330.103 79.2889 330.477 78.8353 330.991 78.4989C331.509 78.1626 332.148 77.9944 332.909 77.9944C333.613 77.9944 334.226 78.1449 334.748 78.4458C335.275 78.7468 335.682 79.1827 335.97 79.7536C336.262 80.3245 336.405 81.0171 336.401 81.8314V88.3237H333.998V82.2032C333.998 81.5216 333.821 80.9883 333.467 80.6033C333.117 80.2183 332.633 80.0258 332.013 80.0258C331.593 80.0258 331.219 80.1187 330.891 80.3046C330.568 80.486 330.314 80.7494 330.128 81.0945C329.946 81.4397 329.856 81.858 329.856 82.3492ZM343.652 92.3599C342.789 92.3599 342.048 92.2426 341.428 92.008C340.809 91.7779 340.311 91.4681 339.935 91.0787C339.559 90.6892 339.297 90.2577 339.151 89.7842L341.316 89.2597C341.413 89.4589 341.555 89.6558 341.74 89.8506C341.926 90.0497 342.176 90.2135 342.491 90.3418C342.809 90.4746 343.21 90.5409 343.692 90.5409C344.374 90.5409 344.938 90.375 345.385 90.0431C345.832 89.7156 346.055 89.1757 346.055 88.4233V86.4915H345.936C345.812 86.7394 345.63 86.9938 345.392 87.255C345.157 87.5161 344.845 87.7351 344.456 87.9122C344.07 88.0892 343.586 88.1777 343.002 88.1777C342.218 88.1777 341.508 87.994 340.871 87.6267C340.238 87.255 339.733 86.7018 339.357 85.9671C338.985 85.228 338.8 84.3031 338.8 83.1923C338.8 82.0726 338.985 81.1277 339.357 80.3577C339.733 79.5832 340.24 78.9968 340.877 78.5985C341.515 78.1958 342.225 77.9944 343.008 77.9944C343.606 77.9944 344.097 78.0962 344.482 78.2998C344.872 78.4989 345.181 78.7401 345.411 79.0234C345.642 79.3022 345.816 79.5655 345.936 79.8133H346.069V78.1272H348.439V88.4897C348.439 89.3615 348.231 90.0829 347.815 90.6538C347.399 91.2247 346.83 91.6518 346.108 91.935C345.387 92.2182 344.568 92.3599 343.652 92.3599ZM343.672 86.2924C344.181 86.2924 344.615 86.1685 344.973 85.9206C345.332 85.6728 345.604 85.3166 345.79 84.8519C345.976 84.3872 346.069 83.8296 346.069 83.179C346.069 82.5373 345.976 81.9752 345.79 81.4929C345.608 81.0105 345.338 80.6365 344.98 80.371C344.626 80.101 344.19 79.966 343.672 79.966C343.137 79.966 342.69 80.1054 342.331 80.3842C341.973 80.6631 341.703 81.0459 341.521 81.5327C341.34 82.0151 341.249 82.5638 341.249 83.179C341.249 83.803 341.34 84.3496 341.521 84.8187C341.707 85.2834 341.979 85.6463 342.338 85.9074C342.701 86.164 343.146 86.2924 343.672 86.2924ZM356.392 88.3237V74.7284H361.49C362.535 74.7284 363.411 74.9231 364.119 75.3125C364.832 75.702 365.37 76.2375 365.732 76.919C366.1 77.5961 366.283 78.3662 366.283 79.2292C366.283 80.101 366.1 80.8755 365.732 81.5526C365.365 82.2297 364.823 82.763 364.106 83.1524C363.389 83.5375 362.506 83.73 361.457 83.73H358.078V81.7053H361.125C361.736 81.7053 362.236 81.5991 362.626 81.3866C363.015 81.1742 363.303 80.8821 363.489 80.5104C363.679 80.1386 363.774 79.7116 363.774 79.2292C363.774 78.7468 363.679 78.3219 363.489 77.9546C363.303 77.5873 363.013 77.3018 362.619 77.0983C362.23 76.8902 361.727 76.7862 361.112 76.7862H358.855V88.3237H356.392ZM371.093 74.7284V88.3237H368.69V74.7284H371.093ZM376.873 88.5295C376.226 88.5295 375.644 88.4145 375.127 88.1843C374.613 87.9498 374.206 87.6046 373.905 87.1487C373.609 86.6929 373.46 86.1309 373.46 85.4626C373.46 84.8873 373.567 84.4115 373.779 84.0353C373.991 83.6592 374.281 83.3582 374.649 83.1325C375.016 82.9068 375.43 82.7364 375.89 82.6214C376.355 82.5019 376.835 82.4156 377.331 82.3625C377.928 82.3005 378.413 82.2452 378.784 82.1965C379.156 82.1434 379.426 82.0638 379.594 81.9575C379.767 81.8469 379.853 81.6765 379.853 81.4464V81.4066C379.853 80.9065 379.705 80.5192 379.408 80.2448C379.112 79.9705 378.685 79.8333 378.127 79.8333C377.539 79.8333 377.072 79.9616 376.726 80.2183C376.386 80.475 376.156 80.7781 376.036 81.1277L373.792 80.8091C373.969 80.1895 374.261 79.6717 374.669 79.2557C375.076 78.8353 375.574 78.5211 376.162 78.3131C376.751 78.1006 377.401 77.9944 378.114 77.9944C378.605 77.9944 379.094 78.052 379.581 78.167C380.068 78.2821 380.513 78.4724 380.915 78.7379C381.318 78.999 381.641 79.3553 381.884 79.8067C382.132 80.2581 382.256 80.8224 382.256 81.4995V88.3237H379.946V86.923H379.866C379.72 87.2063 379.515 87.4718 379.249 87.7196C378.988 87.963 378.658 88.16 378.26 88.3105C377.866 88.4565 377.404 88.5295 376.873 88.5295ZM377.497 86.7637C377.979 86.7637 378.397 86.6686 378.751 86.4783C379.105 86.2835 379.377 86.0269 379.568 85.7082C379.762 85.3896 379.86 85.0422 379.86 84.666V83.4644C379.785 83.5264 379.656 83.5839 379.475 83.637C379.298 83.6901 379.099 83.7366 378.877 83.7764C378.656 83.8163 378.437 83.8517 378.22 83.8827C378.003 83.9136 377.815 83.9402 377.656 83.9623C377.297 84.011 376.977 84.0907 376.693 84.2013C376.41 84.3119 376.187 84.4668 376.023 84.666C375.859 84.8607 375.777 85.113 375.777 85.4228C375.777 85.8653 375.939 86.1995 376.262 86.4252C376.585 86.6509 376.996 86.7637 377.497 86.7637ZM390.138 78.1272V79.9859H384.276V78.1272H390.138ZM385.724 75.6843H388.127V85.2568C388.127 85.5799 388.175 85.8277 388.273 86.0003C388.374 86.1685 388.507 86.2835 388.671 86.3455C388.835 86.4075 389.016 86.4384 389.215 86.4384C389.366 86.4384 389.503 86.4274 389.627 86.4052C389.755 86.3831 389.853 86.3632 389.919 86.3455L390.324 88.2242C390.196 88.2684 390.012 88.3171 389.773 88.3702C389.538 88.4233 389.251 88.4543 388.91 88.4631C388.308 88.4808 387.766 88.3901 387.284 88.191C386.801 87.9874 386.418 87.6732 386.135 87.2483C385.856 86.8235 385.719 86.2924 385.724 85.6551V75.6843ZM397.686 78.1272V79.9859H391.659V78.1272H397.686ZM393.166 88.3237V77.1646C393.166 76.4787 393.307 75.9078 393.591 75.4519C393.878 74.9961 394.263 74.6553 394.746 74.4296C395.228 74.2039 395.763 74.0911 396.352 74.0911C396.768 74.0911 397.138 74.1243 397.461 74.1906C397.784 74.257 398.023 74.3168 398.178 74.3699L397.7 76.2286C397.598 76.1976 397.47 76.1667 397.315 76.1357C397.16 76.1003 396.987 76.0826 396.797 76.0826C396.35 76.0826 396.033 76.191 395.848 76.4079C395.666 76.6203 395.575 76.9257 395.575 77.324V88.3237H393.166ZM404.007 88.5229C403.011 88.5229 402.148 88.3038 401.418 87.8657C400.687 87.4276 400.121 86.8146 399.718 86.0269C399.32 85.2391 399.121 84.3186 399.121 83.2653C399.121 82.212 399.32 81.2893 399.718 80.4971C400.121 79.7049 400.687 79.0898 401.418 78.6516C402.148 78.2135 403.011 77.9944 404.007 77.9944C405.002 77.9944 405.865 78.2135 406.596 78.6516C407.326 79.0898 407.89 79.7049 408.288 80.4971C408.691 81.2893 408.892 82.212 408.892 83.2653C408.892 84.3186 408.691 85.2391 408.288 86.0269C407.89 86.8146 407.326 87.4276 406.596 87.8657C405.865 88.3038 405.002 88.5229 404.007 88.5229ZM404.02 86.5978C404.56 86.5978 405.011 86.4495 405.374 86.153C405.737 85.852 406.007 85.4493 406.184 84.9448C406.365 84.4403 406.456 83.8782 406.456 83.2587C406.456 82.6346 406.365 82.0704 406.184 81.5659C406.007 81.0569 405.737 80.652 405.374 80.3511C405.011 80.0501 404.56 79.8996 404.02 79.8996C403.467 79.8996 403.006 80.0501 402.639 80.3511C402.276 80.652 402.004 81.0569 401.823 81.5659C401.645 82.0704 401.557 82.6346 401.557 83.2587C401.557 83.8782 401.645 84.4403 401.823 84.9448C402.004 85.4493 402.276 85.852 402.639 86.153C403.006 86.4495 403.467 86.5978 404.02 86.5978ZM411.306 88.3237V78.1272H413.636V79.8266H413.742C413.928 79.238 414.247 78.7844 414.698 78.4658C415.154 78.1427 415.674 77.9812 416.258 77.9812C416.391 77.9812 416.539 77.9878 416.703 78.0011C416.871 78.0099 417.01 78.0254 417.121 78.0475V80.2581C417.019 80.2227 416.858 80.1917 416.637 80.1652C416.42 80.1342 416.209 80.1187 416.006 80.1187C415.568 80.1187 415.174 80.2139 414.824 80.4042C414.479 80.59 414.207 80.8489 414.008 81.1808C413.809 81.5128 413.709 81.8956 413.709 82.3293V88.3237H411.306ZM419.092 88.3237V78.1272H421.388V79.8598H421.508C421.72 79.2756 422.072 78.8198 422.563 78.4923C423.055 78.1604 423.641 77.9944 424.323 77.9944C425.013 77.9944 425.595 78.1626 426.068 78.4989C426.546 78.8309 426.883 79.2845 427.078 79.8598H427.184C427.409 79.2933 427.79 78.8419 428.326 78.5056C428.865 78.1648 429.505 77.9944 430.244 77.9944C431.182 77.9944 431.948 78.2909 432.541 78.884C433.134 79.477 433.43 80.3422 433.43 81.4796V88.3237H431.021V81.8513C431.021 81.2185 430.853 80.756 430.516 80.4639C430.18 80.1674 429.768 80.0191 429.281 80.0191C428.702 80.0191 428.248 80.2006 427.921 80.5635C427.598 80.922 427.436 81.3888 427.436 81.9642V88.3237H425.079V81.7517C425.079 81.2251 424.92 80.8047 424.601 80.4905C424.287 80.1762 423.876 80.0191 423.367 80.0191C423.021 80.0191 422.707 80.1076 422.424 80.2847C422.141 80.4573 421.915 80.7029 421.747 81.0215C421.579 81.3357 421.495 81.7031 421.495 82.1235V88.3237H419.092Z" fill="#7A7878"></path>
  <path fill-rule="evenodd" clip-rule="evenodd" d="M0 1.1936H22.6134L52.8669 39.3371C54.1055 40.8983 55.6278 42.1485 57.333 43.0048C59.0381 43.8611 60.8871 44.3039 62.7575 44.304H82.2571L101.48 69.1333V88.1273H78.7803L48.152 49.5975C46.9133 48.0401 45.3921 46.7932 43.6887 45.9393C41.9853 45.0853 40.1387 44.6437 38.2708 44.6436H19.3739L0 20.6075V1.1936Z" fill="#FE4F02"></path>
  <path fill-rule="evenodd" clip-rule="evenodd" d="M94.5169 1.49933L101.478 11.6094V30.6008H78.7804L55.1128 0.890137" fill="#FE4F02"></path>
  <path fill-rule="evenodd" clip-rule="evenodd" d="M46.3671 88.1271L22.6995 58.4138H0V77.4078L6.95832 87.5179L46.3671 88.1271Z" fill="#FE4F02"></path>
  <defs>
    <clipPath id="clip0_29_886">
      <rect width="418.382" height="56.9711" fill="white" transform="translate(16.0232)"></rect>
    </clipPath>
  </defs>
</svg>
